<?xml version="1.0" encoding="utf-8"?>
<!-- Generator: Adobe Illustrator 27.2.0, SVG Export Plug-In . SVG Version: 6.00 Build 0)  -->
<svg version="1.1" id="Capa_1" xmlns="http://www.w3.org/2000/svg" xmlns:xlink="http://www.w3.org/1999/xlink" x="0px" y="0px"
	 viewBox="0 0 491.78 497.65" style="enable-background:new 0 0 491.78 497.65;" xml:space="preserve">
<style type="text/css">
	.st0{display:none;}
	.st1{display:inline;}
	.st2{fill:currentColor; opacity:0.18;}
	.st3{display:inline;fill:#EDEDED;}
	.st4{font-family:'HelveticaRounded-Bold';}
	.st5{font-size:97.9003px;}
</style>
<g class="st0">
	<path class="st1" d="M123.77,488.32c-5.48-1.31-11.1-2.21-16.42-4.02c-12.69-4.32-24.11-10.76-34.26-19.83
		c-12.75-11.4-21.4-25.26-26.65-41.19c-5.22-15.85-4.66-32.25-3.26-48.73c0.7-8.23,1.73-16.36,2.96-24.51
		c2.01-13.32,5.48-26.25,9.44-39.09c10.27-33.29,26.8-63.43,47.03-91.52c8.68-12.05,18.29-23.43,28.29-34.51
		c8.87-9.82,18.77-18.47,28.19-27.64c6.66-6.49,14.14-12.19,21.57-17.83c2.39-1.81,1.68-2.88,0.56-4.57
		c-11.78-17.71-23.56-35.42-35.33-53.14c-5.54-8.34-11.06-16.68-16.6-25.02c-4.17-6.26-3.9-13.18,1.69-18.17
		c8.49-7.58,17.01-15.06,27.74-19.78c13.26-5.84,26.69-7.19,40.97-5.58c16.24,1.82,31.6,6.44,46.66,12.34
		c8.66,3.39,16.48,0.54,24.42-2.5c11.21-4.29,22.09-9.53,34.01-11.8c17.8-3.39,33.95,0.1,48.3,11.3c2.17,1.7,4.26,3.52,6.3,5.38
		c4.87,4.42,6.01,9.68,2.6,15.97c-12.24,22.61-24.58,45.18-36.84,67.78c-4.33,7.98-8.5,16.04-12.89,23.99
		c-0.79,1.44-0.22,1.5,0.78,2.32c10.4,8.58,21.07,16.88,30.93,26.05c24.42,22.71,45.63,48.21,63.35,76.47
		c12.54,20,22.75,41.22,30.64,63.52c5.46,15.43,9.29,31.3,11.99,47.38c3.05,18.14,4.15,36.59,2.72,54.9
		c-1.38,17.73-8.76,33.46-19.84,47.5c-8.02,10.16-18.08,17.85-29.17,23.96c-9.45,5.21-19.76,8.77-30.73,9.69
		c-0.84,0.07-1.93-0.38-2.33,0.89C288.33,488.32,206.05,488.32,123.77,488.32z M247.86,464.4c0,0.01,0,0.02,0,0.02
		c36.92,0,73.84-0.03,110.76,0.01c21.88,0.02,39.98-7.93,54.5-24.54c10.96-12.55,15.39-27.27,16.33-43.39
		c0.31-5.38-0.5-10.79-0.7-16.16c-0.44-11.49-1.95-22.86-4.12-34.03c-4.23-21.78-11.32-42.74-20.88-62.84
		c-15.2-31.97-35.91-60.11-59.87-85.94c-13.75-14.82-29.1-27.95-45.09-40.3c-2.58-1.99-5.02-4.72-9.03-4.7
		c-28.04,0.11-56.08,0.08-84.12,0.02c-2.12,0-3.85,0.61-5.48,1.84c-11.59,8.78-22.79,18.06-33.45,27.92
		c-13.75,12.71-26.21,26.69-37.68,41.46C111.77,246,97.1,269.83,86.36,295.99c-5.9,14.38-10.74,29.05-14.05,44.24
		c-2.14,9.79-3.98,19.58-4.72,29.62c-0.82,11.14-2.52,22.13-0.95,33.45c2.39,17.26,9.53,31.67,22.48,43.33
		c13.14,11.82,28.25,17.95,46.11,17.84C172.77,464.23,210.32,464.4,247.86,464.4z M247.07,128.57c12.77,0,25.54-0.11,38.31,0.09
		c2.94,0.05,4.5-1.01,5.71-3.44c2.89-5.81,5.78-11.62,8.87-17.32c11.87-21.93,23.77-43.84,35.79-65.68c1.11-2.01,0.24-2.69-1.1-3.54
		c-9.44-5.96-19.5-6.1-29.84-3.05c-12.11,3.57-23.31,9.7-35.54,12.91c-8.41,2.21-16.74,3.33-25.59,0.65
		c-12.19-3.69-23.94-8.87-36.62-11.01c-10.83-1.83-21.48-3.5-32.4,0.07c-6.76,2.21-12.56,5.75-18.35,9.64
		c-2.4,1.62-2.21,2.7-0.8,4.81c16.14,24.26,32.21,48.56,48.22,72.91c1.52,2.31,3.19,3.1,5.97,3.06
		C222.15,128.47,234.61,128.57,247.07,128.57z"/>
	<path class="st1" d="M259.99,274.12c-7.63,0-15.27-0.09-22.9,0.02c-10.41,0.16-17.91,7.12-18.88,17.31
		c-0.87,9.16,8.83,18.6,18.24,18.6c12.35,0.01,24.76-1.11,37.03,1.54c16.65,3.59,30.69,18.96,31.87,36.79
		c0.81,12.3-2.35,22.88-10.42,31.68c-6.42,7-14.46,11.9-24.34,12.92c-2.1,0.22-4.08,1.16-6.3,0.94c-2.32-0.22-1.74,1.69-1.75,2.95
		c-0.07,4.67,0.07,9.35-0.11,14.01c-0.27,7.24-7.4,12.55-13.01,12.02c-5.29-0.5-10.47-5.45-10.61-10.75
		c-0.14-4.98-0.22-9.97-0.04-14.95c0.09-2.61-0.64-3.47-3.33-3.4c-6.69,0.18-13.39,0.07-20.09,0.05c-5.61-0.02-11.5-4.53-12.1-9.24
		c-0.93-7.35,2.72-12.67,9.58-14.24c2.32-0.53,4.63-0.44,6.95-0.44c14.64-0.03,29.28,0.01,43.92-0.03
		c13.04-0.04,21.3-12.33,17.11-24.47c-2.16-6.28-10-11.36-17.77-11.42c-9.03-0.08-18.07,0.08-27.1-0.07
		c-15.2-0.24-26.49-7.32-34.66-19.93c-7.72-11.92-8.6-24.68-3.44-37.43c5.71-14.09,17-24.46,34.95-25.69
		c4.19-0.29,6.51-1.3,5.95-6.14c-0.43-3.69-0.15-7.47-0.05-11.2c0.19-6.82,4.65-11.58,10.82-11.71c6.91-0.14,12.5,4.85,12.8,11.65
		c0.19,4.2,0.29,8.43-0.01,12.61c-0.25,3.42,1.08,4.04,4.21,4.07c6.8,0.07,13.62-0.8,20.4,0.63c5.81,1.23,10.21,6.39,9.84,11.92
		c-0.38,5.67-6.27,11.33-11.99,11.37C276.5,274.16,268.24,274.12,259.99,274.12z"/>
</g>
<g class="st0">
	<path class="st1" d="M473.43,471.08c-1.6,0.82-1.61,2.64-2.37,3.96c-1.96,3.42-4.88,5.26-8.61,5.76c-2.62,0.35-5.3,0.37-7.95,0.37
		c-137.56,0.02-275.12-0.09-412.68,0.17c-14.07,0.03-23.04-11.14-23.02-22.85c0.25-131.34,0.17-262.68,0.19-394.02
		c0-7.8,2.47-11.37,9.86-12.88c5.58-1.14,11.36-0.76,16.8,1.11c4.1,1.41,6.34,4.74,6.99,8.96c0.4,2.61,0.53,5.28,0.53,7.93
		c0.02,117.44,0.05,234.87-0.04,352.31c-0.01,7.67,1.02,14.7,7.2,19.9c3.67,3.09,7.82,5.29,12.85,5.29
		c127.95-0.02,255.89-0.02,383.84-0.04c7.88,0,13.78,2.81,16.44,10.71C473.43,462.21,473.43,466.64,473.43,471.08z"/>
	<path class="st1" d="M87.18,355.27c0-9.02,0.31-18.06-0.08-27.06c-0.46-10.6,3.99-18.98,10.47-26.77
		c9.49-11.4,18.81-22.94,28.29-34.36c7.9-9.53,15.92-18.97,23.89-28.44c1.69-2.01,3.44-3.96,5.1-5.99c6.2-7.6,12.13-9.52,20.95-6.18
		c28.87,10.94,57.64,22.13,86.57,32.91c4.88,1.82,9.5,4.57,14.97,4.94c6.02,0.41,10.25-2.53,13.23-7.02
		c21.23-31.93,42.32-63.95,63.35-96.01c3.41-5.2,3.89-11.25-3.05-15.61c-5.33-3.35-10.6-6.8-15.75-10.42
		c-4.46-3.14-3.84-6.99,1.81-9.15c10.25-3.92,20.58-7.62,30.87-11.42c17.25-6.36,34.46-12.84,51.75-19.06
		c9.65-3.47,13.38-0.61,14,9.75c0.75,12.49,1.83,24.95,3.38,37.37c1.01,8.1,1.17,16.3,1.9,24.43c0.71,7.93,1.76,15.84,2.41,23.77
		c0.21,2.52-0.12,5.27-2.36,7.05c-2.04,1.62-3.91,0.11-5.58-0.88c-5.41-3.22-10.91-6.32-16.02-9.96
		c-6.39-4.56-14.68-3.76-19.76,3.96c-29.24,44.45-58.84,88.68-88.43,132.9c-3.7,5.53-10.78,7.8-19.79,4.35
		c-32.56-12.46-65.25-24.61-97.93-36.74c-6.08-2.26-12.13-1.04-16.45,3.68c-8.25,9.03-15.93,18.59-23.87,27.91
		c-4.17,4.89-8.43,9.72-12.61,14.6c-8.62,10.07-17.16,20.21-25.83,30.23c-6.69,7.74-13.53,15.35-20.34,22.99
		c-0.96,1.08-2.01,2.51-3.68,1.7c-1.47-0.72-1.63-2.1-1.61-3.84c0.16-11.21,0.08-22.43,0.08-33.65
		C87.11,355.27,87.14,355.27,87.18,355.27z"/>
</g>
<g fill="#000000" stroke="currentColor" stroke-width="5" >
	<path class="st2" d="M458.87,256.11c0,120.32-97.54,217.86-217.86,217.86S23.14,376.43,23.14,256.11S120.68,38.25,241,38.25
		c32.71,0,63.74,7.21,91.59,20.13c11.45,5.31,37.63-8.61,47.9-1.47c9.22,6.41,2.65,33.71,10.75,41.43
		c13.35,12.71,41.04,7.22,50.83,22.95c7.48,12.02-5.99,29.48-0.93,42.92C450.11,188.05,458.87,229.12,458.87,256.11z"/>
	<g>
		<path d="M8.7,274.77c0-12.33,0-24.66,0-36.99c2.16-2.55,0.39-5.54,0.93-8.28c2.34-11.86,4.03-23.82,7.38-35.49
			c5.53-19.29,13.11-37.68,23.35-54.93c12.21-20.57,26.98-39.03,44.81-55.1c7.21-6.49,14.74-12.5,22.57-18.15
			c21.02-15.17,44.24-25.88,69.01-33.23c14.67-4.36,29.72-7.58,44.97-8.17c14.21-0.54,28.49-0.87,42.77,0.54
			c10.95,1.08,21.75,2.69,32.42,5.16c17.29,4,33.91,10.03,49.73,18.13c2.01,1.03,3.12,0.65,4.62-0.88
			c8.2-8.36,16.88-16.27,24.7-24.96c6.86-7.63,21.9-4.41,23.84,6.06c1.97,10.6,3.71,21.24,5.56,31.86
			c1.54,8.84,3.17,17.67,4.59,26.54c0.25,1.57,0.66,1.89,2.17,2.09c8.49,1.12,16.95,2.52,25.44,3.64
			c10.16,1.34,20.38,2.21,30.48,3.88c4.42,0.73,9.05,1.95,11.5,6.79c3.32,6.53,2.4,12.81-3.14,18.58
			c-8.3,8.64-17.31,16.59-24.93,25.88c-0.87,1.07-2.11,1.46-0.99,3.67c9.23,18.11,16.01,37.14,20.14,57.06
			c2.76,13.31,4.56,26.77,4.92,40.36c0.32,12.2-0.08,24.38-1.65,36.55c-1.26,9.82-2.9,19.54-5.27,29.1
			c-4.96,20.07-12.58,39.12-22.79,57.15c-9.12,16.1-19.95,30.93-32.56,44.42c-5.64,6.03-11.62,11.74-17.84,17.23
			c-7.39,6.53-15.13,12.59-23.32,17.94c-21.24,13.87-43.86,24.77-68.57,31.34c-13.23,3.51-26.58,6.71-40.08,7.35
			c-15.88,0.75-31.89,1.22-47.85-0.57c-14.92-1.68-29.48-4.74-43.8-9.2c-16.15-5.02-31.43-11.86-46.1-20.28
			c-15.07-8.65-29.05-18.76-41.6-30.7c-9.84-9.37-19.24-19.14-27.55-30.03c-14.5-18.99-25.93-39.57-33.98-61.98
			c-5.88-16.37-10.43-33.08-12.32-50.51C9.88,282.74,10.94,278.46,8.7,274.77z M377.73,173.62c0.42,1.01,0.49,1.29,0.63,1.53
			c17.69,30.44,25.31,63.02,21.52,98.22c-1.45,13.47-4.53,26.36-9.13,39.15c-11.39,31.7-31.62,56.46-58.76,75.51
			c-24.9,17.47-53.16,26.22-83.49,28.19c-10.85,0.7-21.75-0.06-32.35-2.01c-18.51-3.39-36.11-9.54-52.6-19
			c-21.54-12.36-39.36-28.69-53.03-49.19c-19.01-28.51-28.5-59.92-27.05-94.55c0.7-16.68,3.71-32.65,9.37-48.3
			c10.45-28.89,27.86-52.57,51.96-71.55c27.85-21.93,59.75-32.38,94.83-33.28c9.77-0.25,19.61,0.94,29.38,2.49
			c16.69,2.65,32.29,8.21,47.25,15.84c2.5,1.28,4.99,2.6,7.41,4.03c1.54,0.91,2.85,0.49,2.02-1.08c-1.16-2.2-0.7-4.45-1.14-6.62
			c-1.67-8.21-2.96-16.5-4.26-24.78c-1.18-7.52,2.98-12.66,8.28-17.22c-87.26-40.52-193.28-16.7-252.78,65.37
			C15.23,219.92,23.64,335.4,104.25,409.3c38.62,35.4,84.77,53.25,137.69,53.27c53.07,0.02,98.93-18.55,138.18-53.27
			c64.25-56.83,87.75-155.06,48.26-238.16c-3.1,2.09-5.01,5.49-9,6.67c-5.28,1.56-10.12-0.18-15.11-0.74
			C395.58,176.11,386.93,174.83,377.73,173.62z M325.06,156.11c-60.8-48.3-140.65-33.89-182.27,15.78
			c-45.87,54.73-41.72,131.74,10.29,180.95c47.53,44.99,125.12,50.07,180.19-2.06c44.33-41.97,56.41-117.07,11.5-174.58
			c-12.22,10.57-23.35,22.26-34.9,33.52c-2.39,2.33-1.24,3.99-0.06,5.9c12.72,20.62,14.98,42.75,8.07,65.54
			c-6.77,22.33-21.82,38.01-42.66,48.16c-15.42,7.51-31.91,9.57-48.45,6.19c-17.58-3.59-32.79-12.13-44.58-26.31
			c-14.44-17.36-21.37-36.84-19.15-59.53c1.31-13.4,5.49-25.58,12.92-36.82c13.68-20.7,33.38-32.04,57.39-34.89
			c18.29-2.17,36,1.88,51.69,12.32c2.09,1.39,3.22,1.5,5-0.3C301.41,178.54,312.61,166.92,325.06,156.11z M267.82,212.26
			c-13.51-6.24-26.77-8.57-40.9-4.18c-20.46,6.37-32.49,20.77-35.7,41.05c-2.93,18.5,2.92,35.1,18.18,47.57
			c14.51,11.87,30.56,14.86,48.3,9.49c9.33-2.83,16.64-8.68,23.34-15.63c12.66-13.15,16.26-37.9,7.98-54.34
			c-1.68-3.33-2.27-3.27-4.66-0.9c-10.82,10.69-21.82,21.2-32.7,31.83c-7.87,7.69-19.08,3.77-22.86-5.52
			c-2.79-6.85,0.68-12.02,5.17-16.48C244.97,234.21,256.21,223.51,267.82,212.26z M406.58,149c1.81-0.18,3.67,0.39,5.4-1.41
			c7.04-7.33,14.34-14.41,21.44-21.68c1.33-1.36,3.33-3.44,3.02-4.68c-0.48-1.88-3.16-0.5-4.85-0.88c-0.15-0.03-0.31,0-0.46-0.02
			c-10.42-1.53-20.81-3.34-31.27-4.5c-8.21-0.92-14.78-5.04-15.94-13.66c-0.27-2.04-0.49-4.15-0.86-6.21
			c-1.82-10.16-3.62-20.32-5.44-30.47c-0.2-1.1,0.77-2.68-0.79-3.2c-1.18-0.4-1.75,1.01-2.45,1.73
			c-8.02,8.26-16.01,16.55-23.98,24.85c-0.59,0.62-1.68,1.12-1.31,2.22c1.27,3.71,1.39,7.61,2.02,11.43
			c1.72,10.49,3.77,20.93,5.17,31.46c1.14,8.59,1.21,8.82,9.5,9.56c5.67,0.51,11.28,1.77,16.94,2.52
			C390.64,147.12,398.58,148.03,406.58,149z"/>
	</g>
</g>
<g class="st0">
	<path class="st1" d="M282.29,395.88c-24.92,0-49.62,0-74.79,0c2.14,7.77,3.12,15.45,3.22,23.37c0.41,32.5-21.1,57.82-50.61,64.99
		c-21.49,5.22-42.43,1.83-60.34-13.29C85.59,458.97,78.11,443.97,76,425.67c-2.72-23.61,5.34-42.91,22.27-58.86
		c4.08-3.84,8.77-7.07,14.07-9.24c2.15-0.88,2.97-1.64,2.26-4.83c-5.03-22.85-9.33-45.87-14.16-68.76
		c-5.47-25.9-11.41-51.71-16.85-77.62c-5.16-24.61-9.88-49.32-14.9-73.96c-3.42-16.77-7.13-33.47-10.5-50.25
		c-0.62-3.09-2.5-2.88-4.63-2.9c-8.83-0.07-17.66,0.02-26.47-0.24c-10.47-0.29-16-7.01-18.51-14.6c-2.44-7.35-1.37-14.69,3.26-21.53
		c3.29-4.87,7.86-7.91,13.01-8.14c13.29-0.59,26.61-1.41,39.95,0.71c19.96,3.17,35.87,19.96,38.95,39.85
		c1.25,8.08,2.83,16.14,5.02,24.08c0.63,2.28,1.35,2.85,3.39,2.68c1.23-0.11,2.47-0.02,3.71-0.02c96.04,0,192.08-0.03,288.12,0.03
		c20.58,0.01,36.25,8.52,45.3,27.56c4.71,9.91,4.06,20.45,1.35,30.5c-7.76,28.81-16.18,57.44-24.36,86.13
		c-4.76,16.7-8.85,33.64-14.56,50.02c-5.79,16.59-18.42,26.48-35.51,30.71c-4.49,1.11-8.97,0.97-13.48,0.97
		c-66.91,0.01-133.82,0.05-200.73-0.09c-4.58-0.01-6.31,0.51-4.45,5.53c1.35,3.65,1.56,7.72,2.27,11.61
		c0.72,3.95,2.39,5.64,7.06,5.62c55.61-0.23,111.22-0.4,166.83,0.01c15.37,0.11,30.97,0.05,45.32,7.9
		c18.95,10.37,30.35,25.83,33.93,47.06c3.23,19.21,0.49,37.2-11.49,53.14c-10.35,13.77-23.76,22.9-40.84,25.97
		c-19.05,3.42-36.94,0.85-53.27-10.46c-14.19-9.82-22.49-23.36-26.71-39.72C277.29,421.56,278.05,408.67,282.29,395.88z
		 M405.37,147.35c-95.87,0-191.25,0-286.74,0c1.04,4.93,2.02,9.58,3.01,14.22c4.21,19.71,8.63,39.37,12.59,59.13
		c3.73,18.6,7.83,37.13,11.51,55.73c1.06,5.36,2.87,6.32,7.61,6.31c69.52-0.11,139.04-0.12,208.57,0.03
		c3.99,0.01,5.56-1.07,6.62-4.93c6.79-24.77,13.86-49.47,20.85-74.19C394.67,184.97,399.99,166.29,405.37,147.35z M120.57,417.82
		c-0.42,13.62,9.83,23.39,22.08,23.49c13.33,0.11,24.21-10.25,23.3-23.35c-1.02-14.65-8.59-21.54-23.91-22.04
		C129.72,395.51,120.59,405.3,120.57,417.82z M346.2,441.32c13.23-0.01,23.7-9.71,23.12-23c-0.63-14.31-7.89-22.09-23.51-22.3
		c-12.72-0.17-21.08,6.81-21.79,21.96C323.39,431.44,333.84,441.24,346.2,441.32z"/>
</g>
<g class="st0">
	<circle class="st3" cx="250.8" cy="242.58" r="198.74"/>
	<g class="st1">
		<path d="M34.74,145.82c2.93-7.71,9.99-10.84,16.4-14.6c14.71-8.64,29.48-17.19,44.27-25.68c5.75-3.3,11.88-4.42,18.01-1.22
			c6.55,3.42,8.98,9.35,8.98,16.48c-0.01,19.84,0.01,39.67-0.01,59.51c-0.01,7.25-3.19,12.66-9.5,16.25
			c-6.13,3.49-11.95,2.27-17.18-1.7c-4.52-3.43-5.99-8.55-5.89-15.14c-3.17,5.33-4.27,10.36-5.78,15.13
			c-3.9,12.3-5.69,25.06-6.94,37.86c-0.51,5.24,0.16,10.58,0.17,15.88c0.04,19.15,3.99,37.55,10.73,55.39
			c6.72,17.78,16.06,33.98,28.01,48.87c13.27,16.54,29.05,29.91,47.1,40.82c17.4,10.52,36.35,17.08,56.12,21.14
			c11.19,2.3,22.67,2.72,34.15,2.48c27.98-0.57,54.15-7.76,79.09-20.35c9.19-4.64,18.17-1.93,22.58,5.59
			c4.75,8.1,1.81,18.02-7.14,22.76c-14.8,7.85-30.31,13.8-46.48,18.13c-22.13,5.93-44.74,7.1-67.42,5.89
			c-13.78-0.74-27.37-3.71-40.65-7.65c-22.13-6.56-42.67-16.41-61.47-29.89c-13.31-9.55-25.34-20.39-36.16-32.74
			c-13.45-15.35-24.25-32.28-32.57-50.84c-7.37-16.44-12.42-33.52-15.57-51.31c-2.89-16.29-3.21-32.66-2.26-48.94
			c1.13-19.51,5.4-38.59,12.72-56.85c0.88-2.2,1.68-4.43,2.64-6.98c-3.41,0.33-6.1,2.56-9.51,2.5c-6.83-0.12-11.83-2.77-14.86-9.02
			c-0.37-0.77-0.31-2.05-1.57-2.28C34.74,152.14,34.74,148.98,34.74,145.82z"/>
		<path d="M445.41,311.38c2.4,0.15,3.58-1.16,5.04-1.94c10.22-5.48,24.06-2.16,25.74,12.9c0.62,5.55-2.1,10.95-7.28,13.97
			c-18.67,10.9-37.33,21.83-56.25,32.28c-11.77,6.5-24.05-1.39-24.29-14.79c-0.26-14.54-1.34-29.05-1.92-43.58
			c-0.26-6.54-0.14-13.12-0.66-19.65c-0.58-7.34,5.96-14.15,12.44-15.34c7.91-1.45,15.87,2.87,18.65,9.91
			c0.35,0.9,0.74,1.78,1.26,3.01c2.56-4.98,2.95-10.19,3.77-15.1c1.76-10.6,3.07-21.37,2.67-32.13
			c-0.85-23.21-5.32-45.68-14.66-67.12c-10.35-23.74-25.41-44.04-44.77-60.99c-21.76-19.05-46.81-32.18-75.16-38.59
			c-17.08-3.86-34.39-5.77-51.87-4.26c-22.26,1.92-43.64,7.33-63.64,17.62c-8.71,4.48-17.77,2.01-22.45-5.64
			c-5.26-8.59-0.85-19.15,7.03-23.04c11.51-5.68,23.44-10.29,35.74-13.88c11.94-3.48,24.2-5.6,36.53-6.98
			c13.45-1.5,26.89-0.74,40.39,0.64c17.18,1.75,33.77,5.4,50,11.26c20.08,7.25,38.41,17.43,55.35,30.42
			c8.86,6.79,16.99,14.29,24.66,22.31c11.34,11.86,20.88,25.11,28.95,39.37c9.71,17.16,16.67,35.45,21.08,54.67
			c1.91,8.32,3.12,16.75,4.12,25.24c0.73,6.21,1.3,12.48,1.3,18.62C457.17,264.67,453.65,288.3,445.41,311.38z"/>
	</g>
	<text transform="matrix(1 0 0 1 131.5593 288.8479)" class="st1 st4 st5">CRM</text>
</g>
<g class="st0">
	<path class="st1" d="M323.29,7.7c8.99,2.81,18.21,5.11,25.81,11.13c2.85,2.25,5.68,4.53,8.37,6.97c4.84,4.39,5.88,9.54,2.51,15.76
		c-12.08,22.31-24.25,44.58-36.35,66.87c-4.27,7.87-8.4,15.82-12.72,23.66c-0.82,1.49-0.04,1.51,0.87,2.26
		c10.25,8.48,20.71,16.74,30.5,25.73c11.94,10.97,23.22,22.68,33.45,35.26c17.93,22.05,33.83,45.49,46.14,71.21
		c9.08,18.97,16.43,38.61,21.08,59.11c2.92,12.85,4.89,25.89,6.02,39.1c0.84,9.8,0.68,19.55,0.63,29.31
		c-0.09,17.64-6.57,33.22-16.45,47.59c-8.31,12.09-19.46,21.05-32.09,27.95c-9.21,5.03-19.28,8.2-29.88,9.62
		c-7.03,0.94-14,0.74-20.99,0.74c-72.72,0.05-145.44,0.04-218.16,0.03c-10.16,0-19.83-2.51-29.24-6.08
		c-11.77-4.46-22.25-11.29-31.01-20.14c-12.88-13-21.36-28.61-25.31-46.73c-2.58-11.82-2.34-23.74-1.55-35.5
		c2.17-32.39,9.83-63.57,22.81-93.41c11.09-25.49,25.28-49.14,42.14-71.18c11.19-14.63,23.23-28.59,36.63-41.26
		c11.13-10.52,22.45-20.87,34.73-30.05c2.21-1.66,1.6-2.67,0.62-4.14c-13.99-21.11-28.01-42.21-42.03-63.3
		c-3.15-4.73-6.34-9.43-9.48-14.17c-4.08-6.15-3.61-12.94,1.86-17.93c8.66-7.9,17.57-15.52,28.59-20.11
		c12.36-5.14,25.08-6.23,38.39-4.97c18.02,1.7,34.64,8.25,51.64,13.54c5.11,1.59,9.76-0.07,13.96-1.63
		c13.75-5.09,27.07-11.34,41.48-14.52c0.19-0.04,0.29-0.47,0.43-0.72C312.22,7.7,317.75,7.7,323.29,7.7z M247.73,456.42
		c35.96,0,71.93-0.02,107.89,0.02c5.94,0.01,11.97-0.13,17.65-1.55c14.61-3.66,27.09-10.85,37.12-22.56
		c10.91-12.73,15.72-27.44,16.09-43.73c0.2-8.76-0.85-17.54-1.61-26.3c-0.93-10.63-2.68-21.1-5.07-31.45
		c-5.83-25.24-15.51-49.03-28.28-71.53c-14.21-25.04-31.73-47.64-51.62-68.39c-5.7-5.95-11.63-11.69-17.81-17.21
		c-8.01-7.16-16.28-13.99-24.73-20.59c-2.5-1.96-4.97-4.5-8.98-4.48c-27.51,0.17-55.02,0.11-82.53,0.04c-1.93,0-3.72,0.34-5.12,1.43
		c-12.04,9.36-23.84,19.01-34.96,29.45c-6.24,5.86-12.05,12.16-17.81,18.52c-9.57,10.54-18.43,21.59-26.77,33.09
		c-14.45,19.94-26.26,41.33-35.32,64.21c-4.93,12.44-8.87,25.21-11.69,38.31c-2.12,9.81-3.75,19.66-4.72,29.68
		c-1.29,13.27-2.88,26.42,0.17,39.65c3.75,16.28,12.22,29.8,25.4,39.72c12.64,9.52,27.11,14.07,43.43,13.82
		C174.87,456.04,211.3,456.42,247.73,456.42z M246.86,125.06c12.44,0,24.89-0.12,37.33,0.08c3.05,0.05,4.63-0.99,5.95-3.6
		c4.93-9.69,9.94-19.34,15.12-28.9c9.58-17.71,19.28-35.34,28.95-53c0.8-1.47,0.39-2.26-1.02-3.18c-9.3-6.06-19.31-6.1-29.45-3.19
		c-11.96,3.43-23.03,9.42-35.04,12.77c-7.9,2.2-15.95,3.63-24,1.24c-8.21-2.44-16.23-5.53-24.39-8.16
		c-10.16-3.27-20.65-5.4-31.28-5.44c-12.34-0.05-23.25,4.76-32.9,12.44c-1.61,1.28-1.16,1.96-0.15,3.47
		c16.09,24.18,32.1,48.42,47.99,72.73c1.48,2.27,3.08,2.8,5.54,2.78C221.97,125.01,234.41,125.06,246.86,125.06z"/>
	<path class="st3" d="M247.73,456.42c-36.42,0-72.86-0.38-109.27,0.17c-16.32,0.25-30.78-4.31-43.43-13.82
		c-13.18-9.92-21.65-23.44-25.4-39.72c-3.05-13.23-1.45-26.38-0.17-39.65c0.97-10.03,2.6-19.87,4.72-29.68
		c2.83-13.11,6.77-25.87,11.69-38.31c9.06-22.88,20.87-44.27,35.32-64.21c8.34-11.51,17.21-22.56,26.77-33.09
		c5.77-6.35,11.58-12.66,17.81-18.52c11.11-10.44,22.92-20.09,34.96-29.45c1.4-1.09,3.19-1.43,5.12-1.43
		c27.51,0.07,55.02,0.13,82.53-0.04c4.01-0.02,6.47,2.52,8.98,4.48c8.44,6.6,16.72,13.43,24.73,20.59
		c6.17,5.52,12.1,11.25,17.81,17.21c19.89,20.76,37.4,43.35,51.62,68.39c12.77,22.5,22.44,46.29,28.28,71.53
		c2.39,10.35,4.14,20.82,5.07,31.45c0.77,8.76,1.81,17.54,1.61,26.3c-0.37,16.29-5.19,31-16.09,43.73
		c-10.03,11.7-22.51,18.9-37.12,22.56c-5.68,1.42-11.71,1.56-17.65,1.55C319.66,456.4,283.69,456.42,247.73,456.42z M259.1,268.77
		c0-0.03,0-0.06,0-0.09c8.3,0,16.6,0.06,24.9-0.02c5.39-0.06,11.11-5.57,11.61-10.98c0.49-5.31-3.98-10.84-9.47-12
		c-6.68-1.42-13.42-0.61-20.13-0.62c-3.29-0.01-4.72-0.58-4.41-4.24c0.35-4.12,0.22-8.3,0.01-12.44
		c-0.34-6.49-5.79-11.34-12.38-11.27c-6.27,0.07-10.68,4.58-10.9,11.31c-0.12,3.84-0.38,7.72,0.04,11.51
		c0.51,4.59-1.74,5.59-5.63,5.81c-17.27,0.97-29.65,11.86-35.03,26.41c-4.65,12.61-3.56,24.75,3.79,36.08
		c8.04,12.39,19.3,19.36,34.34,19.49c8.91,0.07,17.83-0.12,26.74,0.08c8.84,0.2,15.12,5.35,17.29,11.49
		c4.16,11.74-4.02,23.8-16.64,23.88c-14.91,0.1-29.81,0.03-44.72,0.06c-1.68,0-3.38,0.05-5.03,0.34
		c-7.22,1.25-10.87,6.32-10.12,13.92c0.47,4.83,6.33,9.33,12.17,9.34c6.61,0.01,13.22,0.12,19.82-0.05
		c2.48-0.06,3.12,0.74,3.04,3.12c-0.15,5.07,0.08,10.14,0,15.21c-0.04,2.12,0.71,3.81,1.98,5.34c3.12,3.76,7.07,5.82,11.99,4.88
		c4.6-0.88,8.78-5.86,9.18-11.05c0.38-4.89,0.27-9.82,0.25-14.73c-0.01-1.84,0.34-3.13,2.48-2.69c2.08,0.43,3.83-0.7,5.75-0.99
		c12.43-1.87,21.8-8.49,28.45-19.01c4.86-7.68,6.24-16.06,5.53-25.13c-1-12.77-7.03-22.25-17.1-29.69
		c-8.08-5.97-17.39-7.73-27.02-7.91c-8.54-0.16-17.09-0.01-25.64,0.15c-8.1,0.15-16.53-10.13-16.12-18.26
		c0.45-8.92,7.9-16.91,16.55-17.2C242.81,268.55,250.96,268.77,259.1,268.77z"/>
	<path class="st3" d="M246.86,125.06c-12.44,0-24.89-0.05-37.33,0.04c-2.46,0.02-4.06-0.51-5.54-2.78
		c-15.89-24.31-31.9-48.55-47.99-72.73c-1.01-1.52-1.46-2.2,0.15-3.47c9.65-7.68,20.55-12.49,32.9-12.44
		c10.62,0.04,21.12,2.17,31.28,5.44c8.16,2.62,16.18,5.72,24.39,8.16c8.05,2.39,16.1,0.97,24-1.24
		c12.01-3.35,23.08-9.34,35.04-12.77c10.14-2.91,20.15-2.86,29.45,3.19c1.41,0.92,1.82,1.72,1.02,3.18
		c-9.66,17.66-19.37,35.29-28.95,53c-5.17,9.56-10.19,19.21-15.12,28.9c-1.33,2.61-2.9,3.65-5.95,3.6
		C271.75,124.94,259.3,125.06,246.86,125.06z"/>
	<path class="st1" d="M259.1,268.77c-8.14,0-16.3-0.21-24.43,0.06c-8.64,0.29-16.09,8.27-16.55,17.2
		c-0.41,8.14,8.02,18.41,16.12,18.26c8.55-0.16,17.11-0.31,25.64-0.15c9.63,0.18,18.94,1.94,27.02,7.91
		c10.07,7.43,16.1,16.92,17.1,29.69c0.71,9.07-0.67,17.45-5.53,25.13c-6.65,10.52-16.01,17.14-28.45,19.01
		c-1.92,0.29-3.67,1.42-5.75,0.99c-2.15-0.44-2.49,0.85-2.48,2.69c0.02,4.91,0.12,9.84-0.25,14.73c-0.4,5.19-4.58,10.16-9.18,11.05
		c-4.92,0.95-8.87-1.11-11.99-4.88c-1.27-1.53-2.02-3.23-1.98-5.34c0.09-5.07-0.15-10.14,0-15.21c0.07-2.39-0.56-3.19-3.04-3.12
		c-6.6,0.17-13.21,0.06-19.82,0.05c-5.85-0.01-11.7-4.51-12.17-9.34c-0.74-7.59,2.91-12.67,10.12-13.92
		c1.65-0.28,3.35-0.34,5.03-0.34c14.91-0.03,29.81,0.04,44.72-0.06c12.62-0.08,20.8-12.14,16.64-23.88
		c-2.17-6.13-8.45-11.29-17.29-11.49c-8.91-0.2-17.83-0.01-26.74-0.08c-15.04-0.12-26.3-7.09-34.34-19.49
		c-7.35-11.33-8.45-23.48-3.79-36.08c5.37-14.55,17.76-25.44,35.03-26.41c3.89-0.22,6.15-1.22,5.63-5.81
		c-0.42-3.79-0.16-7.68-0.04-11.51c0.22-6.73,4.63-11.25,10.9-11.31c6.59-0.07,12.04,4.78,12.38,11.27
		c0.22,4.14,0.35,8.32-0.01,12.44c-0.31,3.66,1.11,4.24,4.41,4.24c6.7,0.02,13.44-0.8,20.13,0.62c5.49,1.16,9.96,6.69,9.47,12
		c-0.5,5.41-6.22,10.93-11.61,10.98c-8.3,0.09-16.6,0.02-24.9,0.02C259.1,268.71,259.1,268.74,259.1,268.77z"/>
</g>
</svg>
