<?xml version="1.0" encoding="utf-8"?>
<!-- Generator: Adobe Illustrator 27.2.0, SVG Export Plug-In . SVG Version: 6.00 Build 0)  -->
<svg version="1.1" id="Capa_1" xmlns="http://www.w3.org/2000/svg" xmlns:xlink="http://www.w3.org/1999/xlink" x="0px" y="0px"
	 viewBox="0 0 449.8 426.7" style="enable-background:new 0 0 449.8 426.7;" xml:space="preserve">
<style type="text/css">
	.st0{display:none;}
	.st1{display:inline;}
	.st2{display:none;fill:#EDEDED;}
	.st3{display:inline;fill:#EDEDED;}
	.st4{display:none;enable-background:new    ;}
	.st5{font-family:'HelveticaRounded-Bold';}
	.st6{font-size:110.99px;}
</style>
<g class="st0">
	<path class="st1" d="M93.9,462.2c-5.5-1.3-11.1-2.2-16.4-4c-12.7-4.3-24.1-10.8-34.3-19.8c-12.8-11.4-21.4-25.3-26.6-41.2
		c-5.2-15.9-4.7-32.2-3.3-48.7c0.7-8.2,1.7-16.4,3-24.5c2-13.3,5.5-26.2,9.4-39.1c10.3-33.3,26.8-63.4,47-91.5
		c8.7-12.1,18.3-23.4,28.3-34.5c8.9-9.8,18.8-18.5,28.2-27.6c6.7-6.5,14.1-12.2,21.6-17.8c2.4-1.8,1.7-2.9,0.6-4.6
		c-11.8-17.7-23.6-35.4-35.3-53.1c-5.5-8.3-11.1-16.7-16.6-25c-4.2-6.3-3.9-13.2,1.7-18.2c8.5-7.6,17-15.1,27.7-19.8
		c13.3-5.8,26.7-7.2,41-5.6c16.2,1.8,31.6,6.4,46.7,12.3c8.7,3.4,16.5,0.5,24.4-2.5c11.2-4.3,22.1-9.5,34-11.8
		c17.8-3.4,34,0.1,48.3,11.3c2.2,1.7,4.3,3.5,6.3,5.4c4.9,4.4,6,9.7,2.6,16c-12.2,22.6-24.6,45.2-36.8,67.8c-4.3,8-8.5,16-12.9,24
		c-0.8,1.4-0.2,1.5,0.8,2.3c10.4,8.6,21.1,16.9,30.9,26c24.4,22.7,45.6,48.2,63.4,76.5c12.5,20,22.8,41.2,30.6,63.5
		c5.5,15.4,9.3,31.3,12,47.4c3,18.1,4.1,36.6,2.7,54.9c-1.4,17.7-8.8,33.5-19.8,47.5c-8,10.2-18.1,17.9-29.2,24
		c-9.5,5.2-19.8,8.8-30.7,9.7c-0.8,0.1-1.9-0.4-2.3,0.9C258.5,462.2,176.2,462.2,93.9,462.2z M218,438.3
		C218,438.3,218,438.3,218,438.3c36.9,0,73.8,0,110.8,0c21.9,0,40-7.9,54.5-24.5c11-12.5,15.4-27.3,16.3-43.4
		c0.3-5.4-0.5-10.8-0.7-16.2c-0.4-11.5-2-22.9-4.1-34c-4.2-21.8-11.3-42.7-20.9-62.8c-15.2-32-35.9-60.1-59.9-85.9
		c-13.8-14.8-29.1-27.9-45.1-40.3c-2.6-2-5-4.7-9-4.7c-28,0.1-56.1,0.1-84.1,0c-2.1,0-3.9,0.6-5.5,1.8
		c-11.6,8.8-22.8,18.1-33.4,27.9c-13.8,12.7-26.2,26.7-37.7,41.5c-17.3,22.2-31.9,46.1-42.7,72.2c-5.9,14.4-10.7,29-14,44.2
		c-2.1,9.8-4,19.6-4.7,29.6c-0.8,11.1-2.5,22.1-1,33.5c2.4,17.3,9.5,31.7,22.5,43.3c13.1,11.8,28.3,18,46.1,17.8
		C142.9,438.1,180.5,438.3,218,438.3z M217.2,102.4c12.8,0,25.5-0.1,38.3,0.1c2.9,0.1,4.5-1,5.7-3.4c2.9-5.8,5.8-11.6,8.9-17.3
		c11.9-21.9,23.8-43.8,35.8-65.7c1.1-2,0.2-2.7-1.1-3.5c-9.4-6-19.5-6.1-29.8-3.1c-12.1,3.6-23.3,9.7-35.5,12.9
		c-8.4,2.2-16.7,3.3-25.6,0.6c-12.2-3.7-23.9-8.9-36.6-11c-10.8-1.8-21.5-3.5-32.4,0.1c-6.8,2.2-12.6,5.8-18.3,9.6
		c-2.4,1.6-2.2,2.7-0.8,4.8c16.1,24.3,32.2,48.6,48.2,72.9c1.5,2.3,3.2,3.1,6,3.1C192.3,102.3,204.8,102.4,217.2,102.4z"/>
	<path class="st1" d="M230.1,248c-7.6,0-15.3-0.1-22.9,0c-10.4,0.2-17.9,7.1-18.9,17.3c-0.9,9.2,8.8,18.6,18.2,18.6
		c12.4,0,24.8-1.1,37,1.5c16.7,3.6,30.7,19,31.9,36.8c0.8,12.3-2.4,22.9-10.4,31.7c-6.4,7-14.5,11.9-24.3,12.9
		c-2.1,0.2-4.1,1.2-6.3,0.9c-2.3-0.2-1.7,1.7-1.8,3c-0.1,4.7,0.1,9.4-0.1,14c-0.3,7.2-7.4,12.5-13,12c-5.3-0.5-10.5-5.5-10.6-10.8
		c-0.1-5-0.2-10,0-15c0.1-2.6-0.6-3.5-3.3-3.4c-6.7,0.2-13.4,0.1-20.1,0c-5.6,0-11.5-4.5-12.1-9.2c-0.9-7.4,2.7-12.7,9.6-14.2
		c2.3-0.5,4.6-0.4,6.9-0.4c14.6,0,29.3,0,43.9,0c13,0,21.3-12.3,17.1-24.5c-2.2-6.3-10-11.4-17.8-11.4c-9-0.1-18.1,0.1-27.1-0.1
		c-15.2-0.2-26.5-7.3-34.7-19.9c-7.7-11.9-8.6-24.7-3.4-37.4c5.7-14.1,17-24.5,34.9-25.7c4.2-0.3,6.5-1.3,5.9-6.1
		c-0.4-3.7-0.1-7.5-0.1-11.2c0.2-6.8,4.6-11.6,10.8-11.7c6.9-0.1,12.5,4.9,12.8,11.6c0.2,4.2,0.3,8.4,0,12.6c-0.2,3.4,1.1,4,4.2,4.1
		c6.8,0.1,13.6-0.8,20.4,0.6c5.8,1.2,10.2,6.4,9.8,11.9c-0.4,5.7-6.3,11.3-12,11.4C246.6,248,238.4,248,230.1,248z"/>
</g>
<path class="st2" d="M431.8,454.4H0.7c-6.7,0-12.1-5.4-12.1-12.1V36.3c0-6.6,5.4-12.1,12.1-12.1h431.1c6.6,0,12.1,5.4,12.1,12.1
	v405.9C443.9,448.9,438.5,454.4,431.8,454.4z"/>
<g class="st0">
	<path class="st1" d="M443.6,445c-1.6,0.8-1.6,2.6-2.4,4c-2,3.4-4.9,5.3-8.6,5.8c-2.6,0.4-5.3,0.4-8,0.4
		c-137.6,0-275.1-0.1-412.7,0.2c-14.1,0-23-11.1-23-22.9c0.2-131.3,0.2-262.7,0.2-394c0-7.8,2.5-11.4,9.9-12.9
		c5.6-1.1,11.4-0.8,16.8,1.1c4.1,1.4,6.3,4.7,7,9c0.4,2.6,0.5,5.3,0.5,7.9c0,117.4,0,234.9,0,352.3c0,7.7,1,14.7,7.2,19.9
		c3.7,3.1,7.8,5.3,12.9,5.3c127.9,0,255.9,0,383.8,0c7.9,0,13.8,2.8,16.4,10.7C443.6,436.1,443.6,440.5,443.6,445z"/>
	<path class="st1" d="M57.3,329.1c0-9,0.3-18.1-0.1-27.1c-0.5-10.6,4-19,10.5-26.8c9.5-11.4,18.8-22.9,28.3-34.4
		c7.9-9.5,15.9-19,23.9-28.4c1.7-2,3.4-4,5.1-6c6.2-7.6,12.1-9.5,21-6.2c28.9,10.9,57.6,22.1,86.6,32.9c4.9,1.8,9.5,4.6,15,4.9
		c6,0.4,10.2-2.5,13.2-7c21.2-31.9,42.3-63.9,63.4-96c3.4-5.2,3.9-11.2-3-15.6c-5.3-3.3-10.6-6.8-15.8-10.4c-4.5-3.1-3.8-7,1.8-9.2
		c10.2-3.9,20.6-7.6,30.9-11.4c17.2-6.4,34.5-12.8,51.8-19.1c9.6-3.5,13.4-0.6,14,9.8c0.8,12.5,1.8,25,3.4,37.4
		c1,8.1,1.2,16.3,1.9,24.4c0.7,7.9,1.8,15.8,2.4,23.8c0.2,2.5-0.1,5.3-2.4,7.1c-2,1.6-3.9,0.1-5.6-0.9c-5.4-3.2-10.9-6.3-16-10
		c-6.4-4.6-14.7-3.8-19.8,4c-29.2,44.4-58.8,88.7-88.4,132.9c-3.7,5.5-10.8,7.8-19.8,4.4c-32.6-12.5-65.2-24.6-97.9-36.7
		c-6.1-2.3-12.1-1-16.4,3.7c-8.2,9-15.9,18.6-23.9,27.9c-4.2,4.9-8.4,9.7-12.6,14.6c-8.6,10.1-17.2,20.2-25.8,30.2
		c-6.7,7.7-13.5,15.4-20.3,23c-1,1.1-2,2.5-3.7,1.7c-1.5-0.7-1.6-2.1-1.6-3.8c0.2-11.2,0.1-22.4,0.1-33.6
		C57.2,329.1,57.3,329.1,57.3,329.1z"/>
</g>
<g class="st0">
	<path class="st3" d="M429,230c0,120.3-97.5,217.9-217.9,217.9S-6.7,350.3-6.7,230S90.8,12.1,211.1,12.1c32.7,0,63.7,7.2,91.6,20.1
		c11.5,5.3,37.6-8.6,47.9-1.5c9.2,6.4,2.6,33.7,10.8,41.4c13.4,12.7,41,7.2,50.8,23c7.5,12-6,29.5-0.9,42.9
		C420.2,161.9,429,203,429,230z"/>
	<g class="st1">
		<path d="M-21.2,248.6c0-12.3,0-24.7,0-37c2.2-2.6,0.4-5.5,0.9-8.3c2.3-11.9,4-23.8,7.4-35.5c5.5-19.3,13.1-37.7,23.4-54.9
			c12.2-20.6,27-39,44.8-55.1c7.2-6.5,14.7-12.5,22.6-18.2c21-15.2,44.2-25.9,69-33.2c14.7-4.4,29.7-7.6,45-8.2
			c14.2-0.5,28.5-0.9,42.8,0.5c10.9,1.1,21.7,2.7,32.4,5.2c17.3,4,33.9,10,49.7,18.1c2,1,3.1,0.6,4.6-0.9c8.2-8.4,16.9-16.3,24.7-25
			c6.9-7.6,21.9-4.4,23.8,6.1c2,10.6,3.7,21.2,5.6,31.9c1.5,8.8,3.2,17.7,4.6,26.5c0.2,1.6,0.7,1.9,2.2,2.1c8.5,1.1,17,2.5,25.4,3.6
			c10.2,1.3,20.4,2.2,30.5,3.9c4.4,0.7,9,1.9,11.5,6.8c3.3,6.5,2.4,12.8-3.1,18.6c-8.3,8.6-17.3,16.6-24.9,25.9
			c-0.9,1.1-2.1,1.5-1,3.7c9.2,18.1,16,37.1,20.1,57.1c2.8,13.3,4.6,26.8,4.9,40.4c0.3,12.2-0.1,24.4-1.6,36.5
			c-1.3,9.8-2.9,19.5-5.3,29.1c-5,20.1-12.6,39.1-22.8,57.1c-9.1,16.1-20,30.9-32.6,44.4c-5.6,6-11.6,11.7-17.8,17.2
			c-7.4,6.5-15.1,12.6-23.3,17.9c-21.2,13.9-43.9,24.8-68.6,31.3c-13.2,3.5-26.6,6.7-40.1,7.4c-15.9,0.8-31.9,1.2-47.8-0.6
			c-14.9-1.7-29.5-4.7-43.8-9.2c-16.2-5-31.4-11.9-46.1-20.3c-15.1-8.6-29-18.8-41.6-30.7c-9.8-9.4-19.2-19.1-27.5-30
			c-14.5-19-25.9-39.6-34-62c-5.9-16.4-10.4-33.1-12.3-50.5C-20,256.6-18.9,252.3-21.2,248.6z M347.9,147.5c0.4,1,0.5,1.3,0.6,1.5
			c17.7,30.4,25.3,63,21.5,98.2c-1.5,13.5-4.5,26.4-9.1,39.1c-11.4,31.7-31.6,56.5-58.8,75.5c-24.9,17.5-53.2,26.2-83.5,28.2
			c-10.9,0.7-21.8-0.1-32.4-2c-18.5-3.4-36.1-9.5-52.6-19c-21.5-12.4-39.4-28.7-53-49.2c-19-28.5-28.5-59.9-27-94.6
			c0.7-16.7,3.7-32.7,9.4-48.3c10.4-28.9,27.9-52.6,52-71.6c27.9-21.9,59.8-32.4,94.8-33.3c9.8-0.2,19.6,0.9,29.4,2.5
			c16.7,2.7,32.3,8.2,47.2,15.8c2.5,1.3,5,2.6,7.4,4c1.5,0.9,2.9,0.5,2-1.1c-1.2-2.2-0.7-4.4-1.1-6.6c-1.7-8.2-3-16.5-4.3-24.8
			c-1.2-7.5,3-12.7,8.3-17.2C211.4,4.4,105.4,28.2,45.9,110.2c-60.6,83.6-52.1,199,28.5,272.9c38.6,35.4,84.8,53.2,137.7,53.3
			c53.1,0,98.9-18.5,138.2-53.3c64.2-56.8,87.8-155.1,48.3-238.2c-3.1,2.1-5,5.5-9,6.7c-5.3,1.6-10.1-0.2-15.1-0.7
			C365.7,150,357.1,148.7,347.9,147.5z M295.2,130c-60.8-48.3-140.6-33.9-182.3,15.8c-45.9,54.7-41.7,131.7,10.3,180.9
			c47.5,45,125.1,50.1,180.2-2.1c44.3-42,56.4-117.1,11.5-174.6c-12.2,10.6-23.4,22.3-34.9,33.5c-2.4,2.3-1.2,4-0.1,5.9
			c12.7,20.6,15,42.8,8.1,65.5c-6.8,22.3-21.8,38-42.7,48.2c-15.4,7.5-31.9,9.6-48.4,6.2c-17.6-3.6-32.8-12.1-44.6-26.3
			c-14.4-17.4-21.4-36.8-19.1-59.5c1.3-13.4,5.5-25.6,12.9-36.8c13.7-20.7,33.4-32,57.4-34.9c18.3-2.2,36,1.9,51.7,12.3
			c2.1,1.4,3.2,1.5,5-0.3C271.5,152.4,282.8,140.8,295.2,130z M238,186.1c-13.5-6.2-26.8-8.6-40.9-4.2
			c-20.5,6.4-32.5,20.8-35.7,41.1c-2.9,18.5,2.9,35.1,18.2,47.6c14.5,11.9,30.6,14.9,48.3,9.5c9.3-2.8,16.6-8.7,23.3-15.6
			c12.7-13.1,16.3-37.9,8-54.3c-1.7-3.3-2.3-3.3-4.7-0.9c-10.8,10.7-21.8,21.2-32.7,31.8c-7.9,7.7-19.1,3.8-22.9-5.5
			c-2.8-6.9,0.7-12,5.2-16.5C215.1,208.1,226.4,197.4,238,186.1z M376.7,122.9c1.8-0.2,3.7,0.4,5.4-1.4c7-7.3,14.3-14.4,21.4-21.7
			c1.3-1.4,3.3-3.4,3-4.7c-0.5-1.9-3.2-0.5-4.9-0.9c-0.1,0-0.3,0-0.5,0c-10.4-1.5-20.8-3.3-31.3-4.5c-8.2-0.9-14.8-5-15.9-13.7
			c-0.3-2-0.5-4.2-0.9-6.2c-1.8-10.2-3.6-20.3-5.4-30.5c-0.2-1.1,0.8-2.7-0.8-3.2c-1.2-0.4-1.8,1-2.5,1.7c-8,8.3-16,16.5-24,24.8
			c-0.6,0.6-1.7,1.1-1.3,2.2c1.3,3.7,1.4,7.6,2,11.4c1.7,10.5,3.8,20.9,5.2,31.5c1.1,8.6,1.2,8.8,9.5,9.6c5.7,0.5,11.3,1.8,16.9,2.5
			C360.8,121,368.7,121.9,376.7,122.9z"/>
	</g>
</g>
<g class="st0">
	<path class="st1" d="M252.4,369.8c-24.9,0-49.6,0-74.8,0c2.1,7.8,3.1,15.5,3.2,23.4c0.4,32.5-21.1,57.8-50.6,65
		c-21.5,5.2-42.4,1.8-60.3-13.3c-14.2-12-21.7-27-23.8-45.3c-2.7-23.6,5.3-42.9,22.3-58.9c4.1-3.8,8.8-7.1,14.1-9.2
		c2.2-0.9,3-1.6,2.3-4.8c-5-22.9-9.3-45.9-14.2-68.8c-5.5-25.9-11.4-51.7-16.8-77.6c-5.2-24.6-9.9-49.3-14.9-74
		C35.4,89.5,31.7,72.8,28.3,56c-0.6-3.1-2.5-2.9-4.6-2.9c-8.8-0.1-17.7,0-26.5-0.2c-10.5-0.3-16-7-18.5-14.6
		c-2.4-7.4-1.4-14.7,3.3-21.5c3.3-4.9,7.9-7.9,13-8.1C8.3,8,21.6,7.2,34.9,9.3c20,3.2,35.9,20,39,39.8c1.2,8.1,2.8,16.1,5,24.1
		c0.6,2.3,1.3,2.8,3.4,2.7c1.2-0.1,2.5,0,3.7,0c96,0,192.1,0,288.1,0c20.6,0,36.2,8.5,45.3,27.6c4.7,9.9,4.1,20.5,1.4,30.5
		c-7.8,28.8-16.2,57.4-24.4,86.1c-4.8,16.7-8.9,33.6-14.6,50c-5.8,16.6-18.4,26.5-35.5,30.7c-4.5,1.1-9,1-13.5,1
		c-66.9,0-133.8,0-200.7-0.1c-4.6,0-6.3,0.5-4.4,5.5c1.4,3.6,1.6,7.7,2.3,11.6c0.7,4,2.4,5.6,7.1,5.6c55.6-0.2,111.2-0.4,166.8,0
		c15.4,0.1,31,0,45.3,7.9c19,10.4,30.4,25.8,33.9,47.1c3.2,19.2,0.5,37.2-11.5,53.1c-10.4,13.8-23.8,22.9-40.8,26
		c-19,3.4-36.9,0.9-53.3-10.5c-14.2-9.8-22.5-23.4-26.7-39.7C247.4,395.4,248.2,382.5,252.4,369.8z M375.5,121.2
		c-95.9,0-191.2,0-286.7,0c1,4.9,2,9.6,3,14.2c4.2,19.7,8.6,39.4,12.6,59.1c3.7,18.6,7.8,37.1,11.5,55.7c1.1,5.4,2.9,6.3,7.6,6.3
		c69.5-0.1,139-0.1,208.6,0c4,0,5.6-1.1,6.6-4.9c6.8-24.8,13.9-49.5,20.9-74.2C364.8,158.9,370.1,140.2,375.5,121.2z M90.7,391.7
		c-0.4,13.6,9.8,23.4,22.1,23.5c13.3,0.1,24.2-10.2,23.3-23.4c-1-14.6-8.6-21.5-23.9-22C99.9,369.4,90.7,379.2,90.7,391.7z
		 M316.3,415.2c13.2,0,23.7-9.7,23.1-23c-0.6-14.3-7.9-22.1-23.5-22.3c-12.7-0.2-21.1,6.8-21.8,22
		C293.5,405.3,304,415.1,316.3,415.2z"/>
</g>
<circle class="st2" cx="220.9" cy="216.4" r="198.7"/>
<g class="st0">
	<path class="st1" d="M4.9,119.7c2.9-7.7,10-10.8,16.4-14.6C36,96.5,50.8,87.9,65.6,79.4c5.8-3.3,11.9-4.4,18-1.2
		c6.6,3.4,9,9.3,9,16.5c0,19.8,0,39.7,0,59.5c0,7.2-3.2,12.7-9.5,16.2c-6.1,3.5-11.9,2.3-17.2-1.7c-4.5-3.4-6-8.6-5.9-15.1
		c-3.2,5.3-4.3,10.4-5.8,15.1c-3.9,12.3-5.7,25.1-6.9,37.9c-0.5,5.2,0.2,10.6,0.2,15.9c0,19.1,4,37.5,10.7,55.4
		c6.7,17.8,16.1,34,28,48.9c13.3,16.5,29.1,29.9,47.1,40.8c17.4,10.5,36.4,17.1,56.1,21.1c11.2,2.3,22.7,2.7,34.1,2.5
		c28-0.6,54.1-7.8,79.1-20.4c9.2-4.6,18.2-1.9,22.6,5.6c4.8,8.1,1.8,18-7.1,22.8c-14.8,7.9-30.3,13.8-46.5,18.1
		c-22.1,5.9-44.7,7.1-67.4,5.9c-13.8-0.7-27.4-3.7-40.7-7.6c-22.1-6.6-42.7-16.4-61.5-29.9c-13.3-9.5-25.3-20.4-36.2-32.7
		c-13.5-15.4-24.2-32.3-32.6-50.8c-7.4-16.4-12.4-33.5-15.6-51.3c-2.9-16.3-3.2-32.7-2.3-48.9c1.1-19.5,5.4-38.6,12.7-56.9
		c0.9-2.2,1.7-4.4,2.6-7c-3.4,0.3-6.1,2.6-9.5,2.5c-6.8-0.1-11.8-2.8-14.9-9c-0.4-0.8-0.3-2.1-1.6-2.3C4.9,126,4.9,122.9,4.9,119.7z
		"/>
	<path class="st1" d="M6.8,115.6c2.9-7.7,10-10.8,16.4-14.6c14.7-8.6,29.5-17.2,44.3-25.7c5.8-3.3,11.9-4.4,18-1.2
		c6.6,3.4,9,9.3,9,16.5c0,19.8,0,39.7,0,59.5c0,7.2-3.2,12.7-9.5,16.2c-6.1,3.5-11.9,2.3-17.2-1.7c-4.5-3.4-6-8.6-5.9-15.1
		c-3.2,5.3-4.3,10.4-5.8,15.1c-3.9,12.3-5.7,25.1-6.9,37.9c-0.5,5.2,0.2,10.6,0.2,15.9c0,19.1,4,37.6,10.7,55.4
		c6.7,17.8,16.1,34,28,48.9c13.3,16.5,29.1,29.9,47.1,40.8c17.4,10.5,36.4,17.1,56.1,21.1c11.2,2.3,22.7,2.7,34.1,2.5
		c28-0.6,54.1-7.8,79.1-20.4c9.2-4.6,18.2-1.9,22.6,5.6c4.8,8.1,1.8,18-7.1,22.8c-14.8,7.9-30.3,13.8-46.5,18.1
		c-22.1,5.9-44.7,7.1-67.4,5.9c-13.8-0.7-27.4-3.7-40.7-7.6c-22.1-6.6-42.7-16.4-61.5-29.9c-13.3-9.5-25.3-20.4-36.2-32.7
		c-13.5-15.4-24.2-32.3-32.6-50.8c-7.4-16.4-12.4-33.5-15.6-51.3c-2.9-16.3-3.2-32.7-2.3-48.9c1.1-19.5,5.4-38.6,12.7-56.9
		c0.9-2.2,1.7-4.4,2.6-7c-3.4,0.3-6.1,2.6-9.5,2.5c-6.8-0.1-11.8-2.8-14.9-9c-0.4-0.8-0.3-2.1-1.6-2.3
		C6.8,121.9,6.8,118.7,6.8,115.6z"/>
	<path class="st1" d="M415.5,285.3c2.4,0.1,3.6-1.2,5-1.9c10.2-5.5,24.1-2.2,25.7,12.9c0.6,5.5-2.1,11-7.3,14
		c-18.7,10.9-37.3,21.8-56.2,32.3c-11.8,6.5-24-1.4-24.3-14.8c-0.3-14.5-1.3-29-1.9-43.6c-0.3-6.5-0.1-13.1-0.7-19.6
		c-0.6-7.3,6-14.1,12.4-15.3c7.9-1.4,15.9,2.9,18.6,9.9c0.4,0.9,0.7,1.8,1.3,3c2.6-5,3-10.2,3.8-15.1c1.8-10.6,3.1-21.4,2.7-32.1
		c-0.9-23.2-5.3-45.7-14.7-67.1c-10.4-23.7-25.4-44-44.8-61c-21.8-19.1-46.8-32.2-75.2-38.6c-17.1-3.9-34.4-5.8-51.9-4.3
		c-22.3,1.9-43.6,7.3-63.6,17.6c-8.7,4.5-17.8,2-22.4-5.6c-5.3-8.6-0.8-19.2,7-23c11.5-5.7,23.4-10.3,35.7-13.9
		c11.9-3.5,24.2-5.6,36.5-7c13.4-1.5,26.9-0.7,40.4,0.6c17.2,1.8,33.8,5.4,50,11.3c20.1,7.2,38.4,17.4,55.4,30.4
		c8.9,6.8,17,14.3,24.7,22.3c11.3,11.9,20.9,25.1,29,39.4c9.7,17.2,16.7,35.4,21.1,54.7c1.9,8.3,3.1,16.8,4.1,25.2
		c0.7,6.2,1.3,12.5,1.3,18.6C427.3,238.6,423.8,262.2,415.5,285.3z"/>
	<path class="st1" d="M414.1,279.4c2.4,0.1,3.6-1.2,5-1.9c10.2-5.5,24.1-2.2,25.7,12.9c0.6,5.5-2.1,11-7.3,14
		c-18.7,10.9-37.3,21.8-56.2,32.3c-11.8,6.5-24-1.4-24.3-14.8c-0.3-14.5-1.3-29-1.9-43.6c-0.3-6.5-0.1-13.1-0.7-19.6
		c-0.6-7.3,6-14.1,12.4-15.3c7.9-1.4,15.9,2.9,18.6,9.9c0.4,0.9,0.7,1.8,1.3,3c2.6-5,3-10.2,3.8-15.1c1.8-10.6,3.1-21.4,2.7-32.1
		c-0.9-23.2-5.3-45.7-14.7-67.1c-10.4-23.7-25.4-44-44.8-61c-21.8-19-46.8-32.2-75.2-38.6c-17.1-3.9-34.4-5.8-51.9-4.3
		c-22.3,1.9-43.6,7.3-63.6,17.6c-8.7,4.5-17.8,2-22.4-5.6c-5.3-8.6-0.8-19.1,7-23c11.5-5.7,23.4-10.3,35.7-13.9
		c11.9-3.5,24.2-5.6,36.5-7c13.4-1.5,26.9-0.7,40.4,0.6c17.2,1.8,33.8,5.4,50,11.3c20.1,7.2,38.4,17.4,55.4,30.4
		c8.9,6.8,17,14.3,24.7,22.3c11.3,11.9,20.9,25.1,29,39.4c9.7,17.2,16.7,35.4,21.1,54.7c1.9,8.3,3.1,16.8,4.1,25.2
		c0.7,6.2,1.3,12.5,1.3,18.6C425.9,232.7,422.4,256.3,414.1,279.4z"/>
</g>
<text transform="matrix(1 0 0 1 80.1019 262.9766)" class="st4 st5 st6">CRM</text>
<g class="st0">
	<path class="st1" d="M293.4-18.4c9,2.8,18.2,5.1,25.8,11.1c2.9,2.2,5.7,4.5,8.4,7c4.8,4.4,5.9,9.5,2.5,15.8
		C318,37.7,305.9,60,293.8,82.3c-4.3,7.9-8.4,15.8-12.7,23.7c-0.8,1.5,0,1.5,0.9,2.3c10.2,8.5,20.7,16.7,30.5,25.7
		c11.9,11,23.2,22.7,33.5,35.3c17.9,22.1,33.8,45.5,46.1,71.2c9.1,19,16.4,38.6,21.1,59.1c2.9,12.9,4.9,25.9,6,39.1
		c0.8,9.8,0.7,19.5,0.6,29.3c-0.1,17.6-6.6,33.2-16.5,47.6c-8.3,12.1-19.5,21-32.1,28c-9.2,5-19.3,8.2-29.9,9.6
		c-7,0.9-14,0.7-21,0.7c-72.7,0-145.4,0-218.2,0c-10.2,0-19.8-2.5-29.2-6.1c-11.8-4.5-22.2-11.3-31-20.1
		c-12.9-13-21.4-28.6-25.3-46.7c-2.6-11.8-2.3-23.7-1.6-35.5c2.2-32.4,9.8-63.6,22.8-93.4c11.1-25.5,25.3-49.1,42.1-71.2
		c11.2-14.6,23.2-28.6,36.6-41.3c11.1-10.5,22.4-20.9,34.7-30.1c2.2-1.7,1.6-2.7,0.6-4.1c-14-21.1-28-42.2-42-63.3
		c-3.2-4.7-6.3-9.4-9.5-14.2c-4.1-6.1-3.6-12.9,1.9-17.9c8.7-7.9,17.6-15.5,28.6-20.1c12.4-5.1,25.1-6.2,38.4-5
		c18,1.7,34.6,8.2,51.6,13.5c5.1,1.6,9.8-0.1,14-1.6c13.8-5.1,27.1-11.3,41.5-14.5c0.2,0,0.3-0.5,0.4-0.7
		C282.4-18.4,287.9-18.4,293.4-18.4z M217.9,430.3c36,0,71.9,0,107.9,0c5.9,0,12-0.1,17.6-1.5c14.6-3.7,27.1-10.9,37.1-22.6
		c10.9-12.7,15.7-27.4,16.1-43.7c0.2-8.8-0.9-17.5-1.6-26.3c-0.9-10.6-2.7-21.1-5.1-31.5c-5.8-25.2-15.5-49-28.3-71.5
		c-14.2-25-31.7-47.6-51.6-68.4c-5.7-5.9-11.6-11.7-17.8-17.2c-8-7.2-16.3-14-24.7-20.6c-2.5-2-5-4.5-9-4.5c-27.5,0.2-55,0.1-82.5,0
		c-1.9,0-3.7,0.3-5.1,1.4c-12,9.4-23.8,19-35,29.5c-6.2,5.9-12.1,12.2-17.8,18.5c-9.6,10.5-18.4,21.6-26.8,33.1
		C76.9,225,65.1,246.4,56,269.3c-4.9,12.4-8.9,25.2-11.7,38.3c-2.1,9.8-3.8,19.7-4.7,29.7c-1.3,13.3-2.9,26.4,0.2,39.6
		c3.8,16.3,12.2,29.8,25.4,39.7c12.6,9.5,27.1,14.1,43.4,13.8C145,429.9,181.4,430.3,217.9,430.3z M217,98.9
		c12.4,0,24.9-0.1,37.3,0.1c3.1,0.1,4.6-1,5.9-3.6c4.9-9.7,9.9-19.3,15.1-28.9c9.6-17.7,19.3-35.3,29-53c0.8-1.5,0.4-2.3-1-3.2
		C294,4.3,284,4.2,273.9,7.1c-12,3.4-23,9.4-35,12.8c-7.9,2.2-15.9,3.6-24,1.2c-8.2-2.4-16.2-5.5-24.4-8.2
		c-10.2-3.3-20.6-5.4-31.3-5.4c-12.3-0.1-23.2,4.8-32.9,12.4c-1.6,1.3-1.2,2-0.2,3.5c16.1,24.2,32.1,48.4,48,72.7
		c1.5,2.3,3.1,2.8,5.5,2.8C192.1,98.9,204.6,98.9,217,98.9z"/>
	<path class="st3" d="M217.9,430.3c-36.4,0-72.9-0.4-109.3,0.2c-16.3,0.2-30.8-4.3-43.4-13.8c-13.2-9.9-21.7-23.4-25.4-39.7
		c-3-13.2-1.5-26.4-0.2-39.6c1-10,2.6-19.9,4.7-29.7c2.8-13.1,6.8-25.9,11.7-38.3c9.1-22.9,20.9-44.3,35.3-64.2
		c8.3-11.5,17.2-22.6,26.8-33.1c5.8-6.4,11.6-12.7,17.8-18.5c11.1-10.4,22.9-20.1,35-29.4c1.4-1.1,3.2-1.4,5.1-1.4
		c27.5,0.1,55,0.1,82.5,0c4,0,6.5,2.5,9,4.5c8.4,6.6,16.7,13.4,24.7,20.6c6.2,5.5,12.1,11.2,17.8,17.2
		c19.9,20.8,37.4,43.4,51.6,68.4c12.8,22.5,22.4,46.3,28.3,71.5c2.4,10.4,4.1,20.8,5.1,31.5c0.8,8.8,1.8,17.5,1.6,26.3
		c-0.4,16.3-5.2,31-16.1,43.7c-10,11.7-22.5,18.9-37.1,22.6c-5.7,1.4-11.7,1.6-17.6,1.5C289.8,430.3,253.8,430.3,217.9,430.3z
		 M229.2,242.6C229.2,242.6,229.2,242.6,229.2,242.6c8.3-0.1,16.6,0,24.9-0.1c5.4-0.1,11.1-5.6,11.6-11c0.5-5.3-4-10.8-9.5-12
		c-6.7-1.4-13.4-0.6-20.1-0.6c-3.3,0-4.7-0.6-4.4-4.2c0.4-4.1,0.2-8.3,0-12.4c-0.3-6.5-5.8-11.3-12.4-11.3
		c-6.3,0.1-10.7,4.6-10.9,11.3c-0.1,3.8-0.4,7.7,0,11.5c0.5,4.6-1.7,5.6-5.6,5.8c-17.3,1-29.6,11.9-35,26.4
		c-4.6,12.6-3.6,24.8,3.8,36.1c8,12.4,19.3,19.4,34.3,19.5c8.9,0.1,17.8-0.1,26.7,0.1c8.8,0.2,15.1,5.4,17.3,11.5
		c4.2,11.7-4,23.8-16.6,23.9c-14.9,0.1-29.8,0-44.7,0.1c-1.7,0-3.4,0-5,0.3c-7.2,1.2-10.9,6.3-10.1,13.9c0.5,4.8,6.3,9.3,12.2,9.3
		c6.6,0,13.2,0.1,19.8,0c2.5-0.1,3.1,0.7,3,3.1c-0.1,5.1,0.1,10.1,0,15.2c0,2.1,0.7,3.8,2,5.3c3.1,3.8,7.1,5.8,12,4.9
		c4.6-0.9,8.8-5.9,9.2-11c0.4-4.9,0.3-9.8,0.2-14.7c0-1.8,0.3-3.1,2.5-2.7c2.1,0.4,3.8-0.7,5.8-1c12.4-1.9,21.8-8.5,28.4-19
		c4.9-7.7,6.2-16.1,5.5-25.1c-1-12.8-7-22.2-17.1-29.7c-8.1-6-17.4-7.7-27-7.9c-8.5-0.2-17.1,0-25.6,0.1
		c-8.1,0.1-16.5-10.1-16.1-18.3c0.4-8.9,7.9-16.9,16.6-17.2C212.9,242.4,221.1,242.6,229.2,242.6z"/>
	<path class="st3" d="M217,98.9c-12.4,0-24.9-0.1-37.3,0c-2.5,0-4.1-0.5-5.5-2.8c-15.9-24.3-31.9-48.5-48-72.7
		c-1-1.5-1.5-2.2,0.2-3.5c9.7-7.7,20.5-12.5,32.9-12.4c10.6,0,21.1,2.2,31.3,5.4c8.2,2.6,16.2,5.7,24.4,8.2c8.1,2.4,16.1,1,24-1.2
		c12-3.4,23.1-9.3,35-12.8c10.1-2.9,20.1-2.9,29.5,3.2c1.4,0.9,1.8,1.7,1,3.2c-9.7,17.7-19.4,35.3-29,53
		c-5.2,9.6-10.2,19.2-15.1,28.9c-1.3,2.6-2.9,3.7-5.9,3.6C241.9,98.8,229.4,98.9,217,98.9z"/>
	<path class="st1" d="M229.2,242.6c-8.1,0-16.3-0.2-24.4,0.1c-8.6,0.3-16.1,8.3-16.6,17.2c-0.4,8.1,8,18.4,16.1,18.3
		c8.6-0.2,17.1-0.3,25.6-0.1c9.6,0.2,18.9,1.9,27,7.9c10.1,7.4,16.1,16.9,17.1,29.7c0.7,9.1-0.7,17.5-5.5,25.1
		c-6.6,10.5-16,17.1-28.4,19c-1.9,0.3-3.7,1.4-5.8,1c-2.1-0.4-2.5,0.9-2.5,2.7c0,4.9,0.1,9.8-0.2,14.7c-0.4,5.2-4.6,10.2-9.2,11
		c-4.9,1-8.9-1.1-12-4.9c-1.3-1.5-2-3.2-2-5.3c0.1-5.1-0.1-10.1,0-15.2c0.1-2.4-0.6-3.2-3-3.1c-6.6,0.2-13.2,0.1-19.8,0
		c-5.9,0-11.7-4.5-12.2-9.3c-0.7-7.6,2.9-12.7,10.1-13.9c1.6-0.3,3.4-0.3,5-0.3c14.9,0,29.8,0,44.7-0.1
		c12.6-0.1,20.8-12.1,16.6-23.9c-2.2-6.1-8.4-11.3-17.3-11.5c-8.9-0.2-17.8,0-26.7-0.1c-15-0.1-26.3-7.1-34.3-19.5
		c-7.4-11.3-8.4-23.5-3.8-36.1c5.4-14.6,17.8-25.4,35-26.4c3.9-0.2,6.1-1.2,5.6-5.8c-0.4-3.8-0.2-7.7,0-11.5
		c0.2-6.7,4.6-11.2,10.9-11.3c6.6-0.1,12,4.8,12.4,11.3c0.2,4.1,0.4,8.3,0,12.4c-0.3,3.7,1.1,4.2,4.4,4.2c6.7,0,13.4-0.8,20.1,0.6
		c5.5,1.2,10,6.7,9.5,12c-0.5,5.4-6.2,10.9-11.6,11C245.9,242.6,237.6,242.6,229.2,242.6C229.2,242.6,229.2,242.6,229.2,242.6z"/>
</g>
<g>
	<path d="M224.8,421.5c-67.6,0-135.2,0-202.7,0c-7.8,0-13.3-3.1-16.5-10.3c-0.4-0.9-0.7-1.7-0.7-2.8c0-2.7-0.1-5.5-0.1-8.2
		c-0.1-94.8-0.1-189.6-0.1-284.5c0-21.1-0.5-42.2-0.2-63.3c0.1-9.6,9.9-17.8,20.1-15.4c5.9,1.4,10.8,3.4,13.5,9.1
		c1.3,2.7,2,5.6,2,8.6C40,68.7,40,82.5,40,96.4c0,63,0.1,125.9,0.1,188.9c0,31.3-0.1,62.6-0.2,93.9c0,1.3,0,2.6,0.2,3.9
		c0.2,1.5,1,2.6,2.9,2.4c1.5-0.1,3.1,0,4.6,0c95.7,0,191.4,0,287.1,0c31.2,0,62.4-0.1,93.6,0c7.8,0,14.7,2.8,18,10.2
		c4.8,11.1,0,22.4-13.1,25.3c-2.1,0.5-4.3,0.4-6.4,0.4c-65.3,0-130.5,0-195.8,0.1C229,421.6,226.9,421.6,224.8,421.5
		C224.8,421.6,224.8,421.5,224.8,421.5z"/>
	<path d="M316.4,67.6c-6.6,0-12.4,0-18.2,0c-6.8,0-11.9-3-15.2-8.9c-3.6-6.4-3.1-12.8,0.6-18.9c3.5-5.6,8.8-8.2,15.3-8.2
		c23-0.1,45.9-0.2,68.9,0c5.9,0,11.6,1.1,16.2,5.8c4.4,4.6,5.8,10.2,4.5,15.8c-4.4,18.4-8.8,36.7-14.1,54.9
		c-1.1,3.8-1.8,7.7-2.7,11.5c-2.2,8.5-10.7,13.9-19.6,13.2c-7.4-0.6-13.6-5-15.9-14.3c-0.8-2.9-0.1-6,0.6-9c0.7-2.9,1.5-5.8,2.3-8.7
		c0.2-0.8,0.5-1.7-0.1-2.2c-0.8-0.6-1.6,0.1-2.3,0.8c-6.1,5.7-12.1,11.3-18.2,16.9c-12.4,11.5-24.8,23-37.2,34.5
		c-8.2,7.6-16.4,15.3-24.7,22.9c-5.8,5.2-12.8,5.7-20,3.9c-16.9-4.3-33.8-8.8-50.7-13.4c-2.7-0.7-4.5-0.2-6.4,1.6
		c-8.1,7.7-16.2,15.3-24.3,23c-11.8,11.2-23.5,22.6-35.6,33.4c-5.1,4.6-9.3,10.2-15.8,13.4c-10.3,5-22.1,0.2-25.9-10.6
		c-2.4-6.9-0.4-13,5.1-18.3c5.5-5.3,11.1-10.5,16.7-15.8c10.2-9.6,20.5-19.1,30.8-28.7c8-7.6,16-15.2,24.1-22.7
		c3.6-3.3,7.3-6.5,11-9.7c5.2-4.6,11.7-4.4,17.5-2.9c17,4.2,33.7,9.3,50.6,13.8c2.6,0.7,5.2,0.2,7.4-1.9c11-10.5,22-21,33.2-31.2
		c7-6.4,13.8-13,20.8-19.5C302,81.5,309.1,75,316.4,67.6z"/>
	<path d="M316,261.8c0-25.4,0.1-50.7-0.1-76.1c-0.1-8.7,5.1-14.3,13.4-14.4c19.1-0.2,38.2-0.4,57.3,0.1c8.9,0.2,13.2,4.8,13.2,14.5
		c0.1,41.3,0,82.6,0,123.9c0,9,0,18,0,27c-0.1,10.5-4.7,15.3-15.2,15.2c-19.1-0.2-38.2-0.2-57.3-0.1c-5.9,0-11.4-5.9-11.4-11.3
		c0.1-26.3,0-52.5,0-78.8C316,261.8,316,261.8,316,261.8z"/>
	<path d="M268.6,219.4c8.1,0.9,12.5,4.3,12.6,13.5c0.2,21.4,0.1,42.8,0.1,64.3c0,13.6,0,27.2,0,40.9c0,6-2,10.9-8.2,13.2
		c-2,0.8-4.1,0.8-6,0.8c-19.5,0-39.1-0.2-58.6-0.2c-5.8,0-10.9-5.8-10.9-11.4c-0.1-36.2-0.1-72.5,0-108.7c0-7.2,4.8-12.3,11.9-12.4
		c16.8-0.2,33.6-0.2,50.4-0.1c1.6,0,1.5-0.1,3.9,0C265.6,219.2,266.5,219.2,268.6,219.4z"/>
	<path d="M121.7,276.3c9.3,0,18.7-0.1,28,0c6.7,0.1,10.6,2.4,12.3,7.6c0.9,2.8,1.1,5.9,1.1,8.9c0.1,15.3,0.1,30.5,0,45.8
		c0,3.1-0.1,6.6-2.6,9.1c-2.2,2.3-4.6,3.9-8,4.1c-19.2,0.9-38.4,0.1-57.5,0.5c-6.8,0.2-11.4-1.8-13.7-8c-0.3-0.8-0.6-1.6-0.6-2.4
		c0-17.8,0.1-35.6-0.2-53.4c-0.1-5.9,5.1-12.1,12.5-12c9.6,0.1,19.1,0,28.7,0C121.7,276.5,121.7,276.4,121.7,276.3z"/>
</g>
</svg>
